<mxfile modified="2023-10-10T05:43:47.465Z" host="app.diagrams.net" agent="Mozilla/5.0 (Windows NT 10.0; Win64; x64; rv:109.0) Gecko/20100101 Firefox/118.0" etag="Ma8bN3XllgweHxjvk-MB" version="22.0.4" type="device">
  <diagram id="Ht1M8jgEwFfnCIfOTk4-" name="Page-1">
    <mxGraphModel dx="792" dy="1181" grid="1" gridSize="10" guides="1" tooltips="1" connect="1" arrows="1" fold="1" page="1" pageScale="1" pageWidth="1169" pageHeight="827" background="#ffffff" math="0" shadow="0">
      <root>
        <mxCell id="0" />
        <object label="Private Subnets" id="vLOMRPJHQWobztisH3rK-48">
          <mxCell parent="0" />
        </object>
        <mxCell id="vLOMRPJHQWobztisH3rK-49" value="" style="group;fillColor=none;strokeColor=default;opacity=0;gradientColor=none;gradientDirection=north;fillOpacity=0;strokeOpacity=99;" parent="vLOMRPJHQWobztisH3rK-48" vertex="1" connectable="0">
          <mxGeometry x="280" y="400" width="600" height="160" as="geometry" />
        </mxCell>
        <mxCell id="vLOMRPJHQWobztisH3rK-50" value="&lt;div&gt;Private subnet&lt;/div&gt;&lt;div&gt;10.0.1.0/24&lt;br&gt;&lt;/div&gt;" style="points=[[0,0],[0.25,0],[0.5,0],[0.75,0],[1,0],[1,0.25],[1,0.5],[1,0.75],[1,1],[0.75,1],[0.5,1],[0.25,1],[0,1],[0,0.75],[0,0.5],[0,0.25]];outlineConnect=0;gradientColor=none;html=1;whiteSpace=wrap;fontSize=12;fontStyle=0;container=1;pointerEvents=0;collapsible=0;recursiveResize=0;shape=mxgraph.aws4.group;grIcon=mxgraph.aws4.group_security_group;grStroke=0;strokeColor=#147EBA;fillColor=#E6F2F8;verticalAlign=top;align=left;spacingLeft=30;fontColor=#147EBA;dashed=0;" parent="vLOMRPJHQWobztisH3rK-49" vertex="1">
          <mxGeometry width="600" height="160" as="geometry" />
        </mxCell>
        <mxCell id="vLOMRPJHQWobztisH3rK-51" value="EC2" style="sketch=0;points=[[0,0,0],[0.25,0,0],[0.5,0,0],[0.75,0,0],[1,0,0],[0,1,0],[0.25,1,0],[0.5,1,0],[0.75,1,0],[1,1,0],[0,0.25,0],[0,0.5,0],[0,0.75,0],[1,0.25,0],[1,0.5,0],[1,0.75,0]];outlineConnect=0;fontColor=#232F3E;fillColor=#ED7100;strokeColor=#ffffff;dashed=0;verticalLabelPosition=bottom;verticalAlign=top;align=center;html=1;fontSize=12;fontStyle=0;aspect=fixed;shape=mxgraph.aws4.resourceIcon;resIcon=mxgraph.aws4.ec2;" parent="vLOMRPJHQWobztisH3rK-49" vertex="1">
          <mxGeometry x="461" y="41" width="78" height="78" as="geometry" />
        </mxCell>
        <mxCell id="vLOMRPJHQWobztisH3rK-52" value="EC2" style="sketch=0;points=[[0,0,0],[0.25,0,0],[0.5,0,0],[0.75,0,0],[1,0,0],[0,1,0],[0.25,1,0],[0.5,1,0],[0.75,1,0],[1,1,0],[0,0.25,0],[0,0.5,0],[0,0.75,0],[1,0.25,0],[1,0.5,0],[1,0.75,0]];outlineConnect=0;fontColor=#232F3E;fillColor=#ED7100;strokeColor=#ffffff;dashed=0;verticalLabelPosition=bottom;verticalAlign=top;align=center;html=1;fontSize=12;fontStyle=0;aspect=fixed;shape=mxgraph.aws4.resourceIcon;resIcon=mxgraph.aws4.ec2;" parent="vLOMRPJHQWobztisH3rK-49" vertex="1">
          <mxGeometry x="61" y="42" width="78" height="78" as="geometry" />
        </mxCell>
        <mxCell id="vLOMRPJHQWobztisH3rK-60" value="Auto Scaling Group" style="sketch=0;points=[[0,0,0],[0.25,0,0],[0.5,0,0],[0.75,0,0],[1,0,0],[0,1,0],[0.25,1,0],[0.5,1,0],[0.75,1,0],[1,1,0],[0,0.25,0],[0,0.5,0],[0,0.75,0],[1,0.25,0],[1,0.5,0],[1,0.75,0]];outlineConnect=0;fontColor=#232F3E;fillColor=#ED7100;strokeColor=#ffffff;dashed=0;verticalLabelPosition=bottom;verticalAlign=top;align=center;html=1;fontSize=12;fontStyle=0;aspect=fixed;shape=mxgraph.aws4.resourceIcon;resIcon=mxgraph.aws4.auto_scaling2;" parent="vLOMRPJHQWobztisH3rK-49" vertex="1">
          <mxGeometry x="275" width="50" height="50" as="geometry" />
        </mxCell>
        <mxCell id="vLOMRPJHQWobztisH3rK-53" value="" style="group;fillColor=none;strokeColor=default;opacity=0;gradientColor=none;gradientDirection=north;fillOpacity=0;strokeOpacity=99;" parent="vLOMRPJHQWobztisH3rK-48" vertex="1" connectable="0">
          <mxGeometry x="280" y="600" width="600" height="160" as="geometry" />
        </mxCell>
        <mxCell id="vLOMRPJHQWobztisH3rK-54" value="&lt;div&gt;Private subnet&lt;/div&gt;&lt;div&gt;10.0.2.0/24&lt;br&gt;&lt;/div&gt;" style="points=[[0,0],[0.25,0],[0.5,0],[0.75,0],[1,0],[1,0.25],[1,0.5],[1,0.75],[1,1],[0.75,1],[0.5,1],[0.25,1],[0,1],[0,0.75],[0,0.5],[0,0.25]];outlineConnect=0;gradientColor=none;html=1;whiteSpace=wrap;fontSize=12;fontStyle=0;container=1;pointerEvents=0;collapsible=0;recursiveResize=0;shape=mxgraph.aws4.group;grIcon=mxgraph.aws4.group_security_group;grStroke=0;strokeColor=#147EBA;fillColor=#E6F2F8;verticalAlign=top;align=left;spacingLeft=30;fontColor=#147EBA;dashed=0;" parent="vLOMRPJHQWobztisH3rK-53" vertex="1">
          <mxGeometry width="600" height="160" as="geometry" />
        </mxCell>
        <mxCell id="vLOMRPJHQWobztisH3rK-55" value="RDS Main Cluster" style="sketch=0;points=[[0,0,0],[0.25,0,0],[0.5,0,0],[0.75,0,0],[1,0,0],[0,1,0],[0.25,1,0],[0.5,1,0],[0.75,1,0],[1,1,0],[0,0.25,0],[0,0.5,0],[0,0.75,0],[1,0.25,0],[1,0.5,0],[1,0.75,0]];outlineConnect=0;fontColor=#232F3E;fillColor=#C925D1;strokeColor=#ffffff;dashed=0;verticalLabelPosition=bottom;verticalAlign=top;align=center;html=1;fontSize=12;fontStyle=0;aspect=fixed;shape=mxgraph.aws4.resourceIcon;resIcon=mxgraph.aws4.rds;" parent="vLOMRPJHQWobztisH3rK-54" vertex="1">
          <mxGeometry x="61" y="50" width="78" height="78" as="geometry" />
        </mxCell>
        <mxCell id="vLOMRPJHQWobztisH3rK-56" value="RDS Backup" style="sketch=0;points=[[0,0,0],[0.25,0,0],[0.5,0,0],[0.75,0,0],[1,0,0],[0,1,0],[0.25,1,0],[0.5,1,0],[0.75,1,0],[1,1,0],[0,0.25,0],[0,0.5,0],[0,0.75,0],[1,0.25,0],[1,0.5,0],[1,0.75,0]];outlineConnect=0;fontColor=#232F3E;fillColor=#C925D1;strokeColor=#ffffff;dashed=0;verticalLabelPosition=bottom;verticalAlign=top;align=center;html=1;fontSize=12;fontStyle=0;aspect=fixed;shape=mxgraph.aws4.resourceIcon;resIcon=mxgraph.aws4.rds;" parent="vLOMRPJHQWobztisH3rK-53" vertex="1">
          <mxGeometry x="461" y="50" width="78" height="78" as="geometry" />
        </mxCell>
        <mxCell id="vLOMRPJHQWobztisH3rK-57" style="edgeStyle=orthogonalEdgeStyle;rounded=0;orthogonalLoop=1;jettySize=auto;html=1;dashed=1;strokeWidth=2;" parent="vLOMRPJHQWobztisH3rK-53" source="vLOMRPJHQWobztisH3rK-55" target="vLOMRPJHQWobztisH3rK-56" edge="1">
          <mxGeometry relative="1" as="geometry" />
        </mxCell>
        <mxCell id="vLOMRPJHQWobztisH3rK-58" value="&lt;font style=&quot;font-size: 15px;&quot;&gt;Replication&lt;/font&gt;" style="edgeLabel;html=1;align=center;verticalAlign=middle;resizable=0;points=[];" parent="vLOMRPJHQWobztisH3rK-57" vertex="1" connectable="0">
          <mxGeometry x="0.0559" y="-1" relative="1" as="geometry">
            <mxPoint x="-9" y="-3" as="offset" />
          </mxGeometry>
        </mxCell>
        <mxCell id="vLOMRPJHQWobztisH3rK-68" style="edgeStyle=orthogonalEdgeStyle;rounded=0;orthogonalLoop=1;jettySize=auto;html=1;startArrow=blockThin;startFill=1;exitX=1;exitY=0.25;exitDx=0;exitDy=0;exitPerimeter=0;entryX=0.5;entryY=0;entryDx=0;entryDy=0;entryPerimeter=0;" parent="vLOMRPJHQWobztisH3rK-48" target="vLOMRPJHQWobztisH3rK-69" edge="1">
          <mxGeometry relative="1" as="geometry">
            <mxPoint x="621" y="300" as="sourcePoint" />
            <mxPoint x="999" y="360" as="targetPoint" />
          </mxGeometry>
        </mxCell>
        <mxCell id="vLOMRPJHQWobztisH3rK-69" value="Main Content S3&lt;br&gt;(Version Controlled)" style="sketch=0;points=[[0,0,0],[0.25,0,0],[0.5,0,0],[0.75,0,0],[1,0,0],[0,1,0],[0.25,1,0],[0.5,1,0],[0.75,1,0],[1,1,0],[0,0.25,0],[0,0.5,0],[0,0.75,0],[1,0.25,0],[1,0.5,0],[1,0.75,0]];outlineConnect=0;fontColor=#232F3E;fillColor=#7AA116;strokeColor=#ffffff;dashed=0;verticalLabelPosition=bottom;verticalAlign=top;align=center;html=1;fontSize=12;fontStyle=0;aspect=fixed;shape=mxgraph.aws4.resourceIcon;resIcon=mxgraph.aws4.s3;" parent="vLOMRPJHQWobztisH3rK-48" vertex="1">
          <mxGeometry x="960" y="340" width="78" height="78" as="geometry" />
        </mxCell>
        <mxCell id="vLOMRPJHQWobztisH3rK-70" value="&lt;div&gt;S3&lt;/div&gt;&lt;div&gt;(EBS Snapshots)&lt;br&gt;&lt;/div&gt;" style="sketch=0;points=[[0,0,0],[0.25,0,0],[0.5,0,0],[0.75,0,0],[1,0,0],[0,1,0],[0.25,1,0],[0.5,1,0],[0.75,1,0],[1,1,0],[0,0.25,0],[0,0.5,0],[0,0.75,0],[1,0.25,0],[1,0.5,0],[1,0.75,0]];outlineConnect=0;fontColor=#232F3E;fillColor=#7AA116;strokeColor=#ffffff;dashed=0;verticalLabelPosition=bottom;verticalAlign=top;align=center;html=1;fontSize=12;fontStyle=0;aspect=fixed;shape=mxgraph.aws4.resourceIcon;resIcon=mxgraph.aws4.s3;" parent="vLOMRPJHQWobztisH3rK-48" vertex="1">
          <mxGeometry x="960" y="540" width="78" height="78" as="geometry" />
        </mxCell>
        <mxCell id="vLOMRPJHQWobztisH3rK-71" style="edgeStyle=orthogonalEdgeStyle;rounded=0;orthogonalLoop=1;jettySize=auto;html=1;entryX=0;entryY=0.5;entryDx=0;entryDy=0;entryPerimeter=0;" parent="vLOMRPJHQWobztisH3rK-48" source="vLOMRPJHQWobztisH3rK-51" target="vLOMRPJHQWobztisH3rK-70" edge="1">
          <mxGeometry relative="1" as="geometry">
            <Array as="points">
              <mxPoint x="840" y="480" />
              <mxPoint x="840" y="579" />
            </Array>
          </mxGeometry>
        </mxCell>
        <mxCell id="vLOMRPJHQWobztisH3rK-72" style="edgeStyle=orthogonalEdgeStyle;rounded=0;orthogonalLoop=1;jettySize=auto;html=1;entryX=0;entryY=0.5;entryDx=0;entryDy=0;entryPerimeter=0;" parent="vLOMRPJHQWobztisH3rK-48" source="vLOMRPJHQWobztisH3rK-52" target="vLOMRPJHQWobztisH3rK-70" edge="1">
          <mxGeometry relative="1" as="geometry">
            <Array as="points">
              <mxPoint x="440" y="481" />
              <mxPoint x="440" y="579" />
            </Array>
          </mxGeometry>
        </mxCell>
        <object label="Main Groups" id="1">
          <mxCell parent="0" />
        </object>
        <mxCell id="UEzPUAAOIrF-is8g5C7q-74" value="AWS Cloud" style="points=[[0,0],[0.25,0],[0.5,0],[0.75,0],[1,0],[1,0.25],[1,0.5],[1,0.75],[1,1],[0.75,1],[0.5,1],[0.25,1],[0,1],[0,0.75],[0,0.5],[0,0.25]];outlineConnect=0;gradientColor=none;html=1;whiteSpace=wrap;fontSize=12;fontStyle=0;shape=mxgraph.aws4.group;grIcon=mxgraph.aws4.group_aws_cloud_alt;strokeColor=#232F3E;fillColor=none;verticalAlign=top;align=left;spacingLeft=30;fontColor=#232F3E;dashed=0;labelBackgroundColor=#ffffff;container=1;pointerEvents=0;collapsible=0;recursiveResize=0;" parent="1" vertex="1">
          <mxGeometry x="50" y="160" width="1100" height="660" as="geometry" />
        </mxCell>
        <mxCell id="vLOMRPJHQWobztisH3rK-3" value="&lt;div&gt;VPC&lt;/div&gt;&lt;div&gt;10.0.0.0/16&lt;br&gt;&lt;/div&gt;" style="points=[[0,0],[0.25,0],[0.5,0],[0.75,0],[1,0],[1,0.25],[1,0.5],[1,0.75],[1,1],[0.75,1],[0.5,1],[0.25,1],[0,1],[0,0.75],[0,0.5],[0,0.25]];outlineConnect=0;gradientColor=none;html=1;whiteSpace=wrap;fontSize=12;fontStyle=0;container=1;pointerEvents=0;collapsible=0;recursiveResize=0;shape=mxgraph.aws4.group;grIcon=mxgraph.aws4.group_vpc;strokeColor=#248814;fillColor=none;verticalAlign=top;align=left;spacingLeft=30;fontColor=#AAB7B8;dashed=0;" parent="UEzPUAAOIrF-is8g5C7q-74" vertex="1">
          <mxGeometry x="70" y="80" width="960" height="540" as="geometry" />
        </mxCell>
        <mxCell id="Zp6QACNB-NWqo1adNGot-1" value="&lt;div&gt;Public subnet&lt;/div&gt;&lt;div&gt;10.0.101.0/24&lt;br&gt;&lt;/div&gt;" style="points=[[0,0],[0.25,0],[0.5,0],[0.75,0],[1,0],[1,0.25],[1,0.5],[1,0.75],[1,1],[0.75,1],[0.5,1],[0.25,1],[0,1],[0,0.75],[0,0.5],[0,0.25]];outlineConnect=0;gradientColor=none;html=1;whiteSpace=wrap;fontSize=12;fontStyle=0;container=1;pointerEvents=0;collapsible=0;recursiveResize=0;shape=mxgraph.aws4.group;grIcon=mxgraph.aws4.group_security_group;grStroke=0;strokeColor=#248814;fillColor=#E9F3E6;verticalAlign=top;align=left;spacingLeft=30;fontColor=#248814;dashed=0;" vertex="1" parent="vLOMRPJHQWobztisH3rK-3">
          <mxGeometry x="280" y="10" width="360" height="130" as="geometry" />
        </mxCell>
        <mxCell id="vLOMRPJHQWobztisH3rK-11" value="ALB" style="sketch=0;points=[[0,0,0],[0.25,0,0],[0.5,0,0],[0.75,0,0],[1,0,0],[0,1,0],[0.25,1,0],[0.5,1,0],[0.75,1,0],[1,1,0],[0,0.25,0],[0,0.5,0],[0,0.75,0],[1,0.25,0],[1,0.5,0],[1,0.75,0]];outlineConnect=0;fontColor=#232F3E;fillColor=#8C4FFF;strokeColor=#ffffff;dashed=0;verticalLabelPosition=bottom;verticalAlign=top;align=center;html=1;fontSize=12;fontStyle=0;aspect=fixed;shape=mxgraph.aws4.resourceIcon;resIcon=mxgraph.aws4.elastic_load_balancing;" parent="vLOMRPJHQWobztisH3rK-3" vertex="1">
          <mxGeometry x="423" y="40" width="78" height="78" as="geometry" />
        </mxCell>
        <mxCell id="vLOMRPJHQWobztisH3rK-37" style="edgeStyle=orthogonalEdgeStyle;rounded=0;orthogonalLoop=1;jettySize=auto;html=1;" parent="vLOMRPJHQWobztisH3rK-3" source="vLOMRPJHQWobztisH3rK-11" edge="1">
          <mxGeometry relative="1" as="geometry">
            <mxPoint x="660" y="201" as="targetPoint" />
          </mxGeometry>
        </mxCell>
        <mxCell id="vLOMRPJHQWobztisH3rK-35" style="edgeStyle=orthogonalEdgeStyle;rounded=0;orthogonalLoop=1;jettySize=auto;html=1;" parent="vLOMRPJHQWobztisH3rK-3" source="vLOMRPJHQWobztisH3rK-11" edge="1">
          <mxGeometry relative="1" as="geometry">
            <mxPoint x="260" y="202" as="targetPoint" />
          </mxGeometry>
        </mxCell>
        <mxCell id="vLOMRPJHQWobztisH3rK-41" style="edgeStyle=orthogonalEdgeStyle;rounded=0;orthogonalLoop=1;jettySize=auto;html=1;" parent="vLOMRPJHQWobztisH3rK-3" edge="1">
          <mxGeometry relative="1" as="geometry">
            <mxPoint x="260" y="310" as="sourcePoint" />
            <mxPoint x="260" y="410" as="targetPoint" />
          </mxGeometry>
        </mxCell>
        <mxCell id="vLOMRPJHQWobztisH3rK-42" style="edgeStyle=orthogonalEdgeStyle;rounded=0;orthogonalLoop=1;jettySize=auto;html=1;" parent="vLOMRPJHQWobztisH3rK-3" edge="1">
          <mxGeometry relative="1" as="geometry">
            <mxPoint x="660" y="310" as="sourcePoint" />
            <mxPoint x="660" y="410" as="targetPoint" />
          </mxGeometry>
        </mxCell>
        <mxCell id="vLOMRPJHQWobztisH3rK-5" value="&lt;div&gt;Availability Zone&lt;/div&gt;&lt;div&gt;ap-southeast-2 (Sydney)&lt;br&gt;&lt;/div&gt;" style="fillColor=#CCCCCC;strokeColor=#147EBA;dashed=1;verticalAlign=top;fontStyle=0;fontColor=#147EBA;whiteSpace=wrap;html=1;strokeWidth=1;fillOpacity=20;" parent="vLOMRPJHQWobztisH3rK-3" vertex="1">
          <mxGeometry x="120" y="-42" width="280" height="602" as="geometry" />
        </mxCell>
        <mxCell id="vLOMRPJHQWobztisH3rK-6" value="&lt;div&gt;Availability Zone&lt;/div&gt;&lt;div&gt;ap-southeast-1 (Singapore)&lt;br&gt;&lt;/div&gt;" style="fillColor=#CCCCCC;strokeColor=#147EBA;dashed=1;verticalAlign=top;fontStyle=0;fontColor=#147EBA;whiteSpace=wrap;html=1;strokeWidth=1;perimeterSpacing=0;fillOpacity=20;" parent="vLOMRPJHQWobztisH3rK-3" vertex="1">
          <mxGeometry x="520" y="-42" width="280" height="602" as="geometry" />
        </mxCell>
        <mxCell id="vLOMRPJHQWobztisH3rK-33" style="edgeStyle=orthogonalEdgeStyle;rounded=0;orthogonalLoop=1;jettySize=auto;html=1;" parent="1" target="vLOMRPJHQWobztisH3rK-11" edge="1">
          <mxGeometry relative="1" as="geometry">
            <mxPoint x="582" y="220" as="sourcePoint" />
          </mxGeometry>
        </mxCell>
        <mxCell id="vLOMRPJHQWobztisH3rK-2" value="Route 53 (DNS)" style="sketch=0;points=[[0,0,0],[0.25,0,0],[0.5,0,0],[0.75,0,0],[1,0,0],[0,1,0],[0.25,1,0],[0.5,1,0],[0.75,1,0],[1,1,0],[0,0.25,0],[0,0.5,0],[0,0.75,0],[1,0.25,0],[1,0.5,0],[1,0.75,0]];outlineConnect=0;fontColor=#232F3E;fillColor=#8C4FFF;strokeColor=#ffffff;dashed=0;verticalLabelPosition=bottom;verticalAlign=top;align=center;html=1;fontSize=12;fontStyle=0;aspect=fixed;shape=mxgraph.aws4.resourceIcon;resIcon=mxgraph.aws4.route_53;" parent="1" vertex="1">
          <mxGeometry x="543" y="120" width="78" height="78" as="geometry" />
        </mxCell>
        <mxCell id="vLOMRPJHQWobztisH3rK-27" value="users" style="sketch=0;outlineConnect=0;gradientColor=none;fontColor=#545B64;strokeColor=none;fillColor=#879196;dashed=0;verticalLabelPosition=bottom;verticalAlign=top;align=center;html=1;fontSize=12;fontStyle=0;aspect=fixed;shape=mxgraph.aws4.illustration_users;pointerEvents=1" parent="1" vertex="1">
          <mxGeometry x="380" y="20" width="100" height="100" as="geometry" />
        </mxCell>
        <mxCell id="vLOMRPJHQWobztisH3rK-28" value="users" style="sketch=0;outlineConnect=0;gradientColor=none;fontColor=#545B64;strokeColor=none;fillColor=#879196;dashed=0;verticalLabelPosition=bottom;verticalAlign=top;align=center;html=1;fontSize=12;fontStyle=0;aspect=fixed;shape=mxgraph.aws4.illustration_users;pointerEvents=1" parent="1" vertex="1">
          <mxGeometry x="680" y="20" width="100" height="100" as="geometry" />
        </mxCell>
        <mxCell id="vLOMRPJHQWobztisH3rK-29" style="edgeStyle=orthogonalEdgeStyle;rounded=0;orthogonalLoop=1;jettySize=auto;html=1;entryX=0.5;entryY=0;entryDx=0;entryDy=0;entryPerimeter=0;" parent="1" source="vLOMRPJHQWobztisH3rK-27" target="vLOMRPJHQWobztisH3rK-2" edge="1">
          <mxGeometry relative="1" as="geometry" />
        </mxCell>
        <mxCell id="vLOMRPJHQWobztisH3rK-32" style="edgeStyle=orthogonalEdgeStyle;rounded=0;orthogonalLoop=1;jettySize=auto;html=1;entryX=0.5;entryY=0;entryDx=0;entryDy=0;entryPerimeter=0;" parent="1" source="vLOMRPJHQWobztisH3rK-28" target="vLOMRPJHQWobztisH3rK-2" edge="1">
          <mxGeometry relative="1" as="geometry" />
        </mxCell>
      </root>
    </mxGraphModel>
  </diagram>
</mxfile>
